#!OML:ASF F:\twosubjects\two\Thursday\Session 1\justin.ASF
:FULLY-SPECIFIED
:DEGREES
686
root 21.5142 13.1924 3.15807 -178.602 -84.7604 160.255
lowerback 31.7121 2.35551 -0.62886
upperback 15.9453 0.796593 2.16417
thorax 0.801879 -0.639206 2.51235
lowerneck -22.6611 0.201317 -8.11717
upperneck 20.9008 2.5156 1.90637
head 10.3164 0.691623 2.38993
rclavicle 6.75868e-015 8.74653e-015
rhumerus 0.380377 26.2353 -77.9456
rradius 69.2095
rwrist 3.94883
rhand -16.3263 24.8103
rfingers 7.12502
rthumb 9.88532 -4.93766
lclavicle 6.75868e-015 8.74653e-015
lhumerus -4.62146 -20.2292 88.4567
lradius 68.4736
lwrist -17.1905
lhand -16.6894 31.3766
lfingers 7.12502
lthumb 9.53499 61.1409
rfemur -52.5149 -6.41191 13.506
rtibia 66.1334
rfoot 5.12032 -3.47578
rtoes -7.5122
lfemur -49.5258 9.7822 -11.2567
ltibia 62.3582
lfoot 7.99074 -11.7646
ltoes -6.96762
687
root 21.5202 13.1874 3.15762 -176.774 -84.8036 158.187
lowerback 31.8056 2.60068 -0.597191
upperback 15.838 1.14227 2.11424
thorax 0.620052 -0.446924 2.3371
lowerneck -22.6348 0.0958934 -7.76903
upperneck 20.5914 2.23159 1.9812
head 10.2163 0.612882 2.3129
rclavicle 2.78299e-015 -7.15625e-015
rhumerus -0.223949 25.5065 -78.1469
rradius 69.0512
rwrist 4.0398
rhand -16.2668 24.9907
rfingers 7.12502
rthumb 9.94272 -4.7545
lclavicle 2.78299e-015 -7.15625e-015
lhumerus -4.34455 -21.1942 88.4772
lradius 67.7851
lwrist -17.1102
lhand -16.8471 30.6863
lfingers 7.12502
lthumb 9.3829 60.4574
rfemur -52.2278 -6.35925 13.1983
rtibia 66.1077
rfoot 5.05964 -3.59093
rtoes -6.35556
lfemur -49.2774 9.77923 -11.559
ltibia 62.2323
lfoot 7.99245 -11.5209
ltoes -6.93957
688
root 21.5271 13.1776 3.15885 -173.404 -84.7813 154.908
lowerback 31.4427 2.69528 -0.929789
upperback 15.6982 1.22301 2.09235
thorax 0.598505 -0.404849 2.47991
lowerneck -22.7383 0.134283 -7.93963
upperneck 20.4075 2.30314 2.19233
head 10.1587 0.666343 2.42477
rclavicle -3.57812e-015 8.74653e-015
rhumerus -0.350944 25.6864 -77.9044
rradius 68.803
rwrist 3.85538
rhand -16.4285 24.7393
rfingers 7.12502
rthumb 9.78672 -5.01328
lclavicle -3.57812e-015 8.74653e-015
lhumerus -4.17576 -21.3739 88.659
lradius 67.145
lwrist -17.0836
lhand -16.7432 30.7287
lfingers 7.12502
lthumb 9.48314 60.4953
rfemur -52.4039 -6.21845 12.804
rtibia 66.1142
rfoot 5.08069 -3.69512
rtoes -5.94419
lfemur -49.4337 9.81145 -11.9678
ltibia 62.1454
lfoot 8.1087 -11.459
ltoes -7.03739
689
root 21.5331 13.1667 3.16631 -170.879 -84.7841 152.417
lowerback 31.022 2.77507 -1.07558
upperback 15.6619 1.32049 2.07853
thorax 0.72751 -0.351436 2.51967
lowerneck -22.9133 0.119871 -7.98471
upperneck 20.1222 2.26812 2.39965
head 10.0847 0.684724 2.49817
rclavicle -1.70955e-014 -1.82882e-014
rhumerus -0.424218 25.5581 -77.7181
rradius 68.4806
rwrist 3.9866
rhand -16.3416 24.6814
rfingers 7.12502
rthumb 9.87058 -5.06721
lclavicle -1.70955e-014 -1.82882e-014
lhumerus -3.8303 -21.8376 88.7544
lradius 66.4818
lwrist -16.8213
lhand -16.7175 31.185
lfingers 7.12502
lthumb 9.5079 60.9505
rfemur -52.5185 -6.25232 12.5056
rtibia 66.1093
rfoot 5.4315 -4.57973
rtoes -1.58018
lfemur -49.5163 9.66041 -12.2345
ltibia 62.1231
lfoot 8.11976 -11.3737
ltoes -7.0202
690
root 21.5429 13.1612 3.17346 -175.339 -84.9167 156.686
lowerback 30.9278 2.63122 -0.482878
upperback 15.6122 1.3087 2.11057
thorax 0.725321 -0.316191 2.21921
lowerneck -22.753 0.241857 -7.98144
upperneck 19.568 2.37889 2.57565
head 9.84662 0.778089 2.56347
rclavicle -1.15295e-014 -1.66979e-014
rhumerus -0.705371 25.5426 -77.829
rradius 68.2095
rwrist 4.13515
rhand -16.8635 24.705
rfingers 7.12502
rthumb 9.36704 -5.06689
lclavicle -1.15295e-014 -1.66979e-014
lhumerus -3.56423 -22.1617 88.7256
lradius 65.8493
lwrist -16.6324
lhand -16.3483 31.7603
lfingers 7.12502
lthumb 9.86415 61.5092
rfemur -52.307 -6.3359 12.9521
rtibia 66.082
rfoot 6.07835 -7.57822
rtoes 12.5878
lfemur -49.3434 9.49652 -11.7614
ltibia 62.1647
lfoot 8.03762 -11.3421
ltoes -6.59801
691
root 21.5588 13.1609 3.17293 -181.535 -84.9638 162.617
lowerback 30.9181 2.4734 0.281712
upperback 15.6022 1.30729 2.03842
thorax 0.741818 -0.265077 1.70215
lowerneck -22.6641 0.435834 -7.7082
upperneck 19.0806 2.53072 2.64678
head 9.64893 0.895277 2.55503
rclavicle -1.43125e-014 1.19271e-014
rhumerus -0.855581 25.355 -78.212
rradius 67.8484
rwrist 4.30512
rhand -17.5552 24.7724
rfingers 7.12502
rthumb 8.69956 -5.02831
lclavicle -1.43125e-014 1.19271e-014
lhumerus -3.13412 -22.4175 88.4263
lradius 65.1344
lwrist -16.5626
lhand -15.43 32.2526
lfingers 7.12502
lthumb 10.75 61.9576
rfemur -51.9698 -6.2372 13.5437
rtibia 66.0128
rfoot 6.01904 -8.43959
rtoes 16.0127
lfemur -49.129 9.4204 -11.0441
ltibia 62.2346
lfoot 8.20888 -11.4866
ltoes -6.27066
692
root 21.5696 13.1571 3.16667 -182.431 -84.95 163.371
lowerback 31.1111 2.09018 1.61752
upperback 15.4161 1.17634 0.981182
thorax 0.511782 -0.178316 -0.190922
lowerneck -22.9792 0.562496 -6.82375
upperneck 18.9428 2.24278 3.4716
head 9.66465 0.937567 2.66457
rclavicle -8.54774e-015 1.35174e-014
rhumerus -1.32882 24.0832 -80.1637
rradius 67.317
rwrist 4.86142
rhand -17.9792 25.0004
rfingers 7.12502
rthumb 8.29043 -4.81695
lclavicle -8.54774e-015 1.35174e-014
lhumerus -2.84276 -23.6236 86.8179
lradius 64.567
lwrist -16.1268
lhand -14.9358 32.2444
lfingers 7.12502
lthumb 11.2267 61.924
rfemur -51.8175 -6.10176 13.5981
rtibia 65.9478
rfoot 5.83131 -7.78886
rtoes 12.9108
lfemur -49.0937 9.522 -10.8941
ltibia 62.2912
lfoot 8.47277 -11.7392
ltoes -6.55571
693
root 21.5732 13.1505 3.16361 -181.093 -85.0418 161.897
lowerback 30.8509 2.21202 1.36563
upperback 15.4104 1.28162 1.10005
thorax 0.605555 -0.139851 0.0553492
lowerneck -23.1269 0.538282 -7.12237
upperneck 18.5727 2.24366 3.83235
head 9.55044 0.971082 2.8349
rclavicle 1.98785e-016 -7.95139e-016
rhumerus -1.28541 24.1035 -79.8723
rradius 66.9362
rwrist 4.65855
rhand -18.2982 24.9646
rfingers 7.12502
rthumb 7.98249 -4.86467
lclavicle 1.98785e-016 -7.95139e-016
lhumerus -2.58024 -23.8453 86.9705
lradius 63.9675
lwrist -15.9612
lhand -14.9208 31.6331
lfingers 7.12502
lthumb 11.2412 61.3119
rfemur -51.6738 -6.11554 13.3976
rtibia 65.8972
rfoot 5.47863 -6.44083
rtoes 6.379
lfemur -48.983 9.38565 -11.0703
ltibia 62.2602
lfoot 8.40072 -11.5755
ltoes -6.91983
694
root 21.5792 13.1464 3.16748 -179.031 -85.2198 159.49
lowerback 30.8528 2.29201 0.835275
upperback 15.3732 1.2627 1.36907
thorax 0.535628 -0.1937 0.6603
lowerneck -22.9952 0.715323 -7.27904
upperneck 18.1164 2.56135 3.71508
head 9.34726 1.10471 2.8506
rclavicle -7.35503e-015 1.98785e-015
rhumerus -1.22947 24.7559 -79.224
rradius 66.5938
rwrist 4.17685
rhand -18.6831 24.9359
rfingers 7.12502
rthumb 7.61106 -4.90717
lclavicle -7.35503e-015 1.98785e-015
lhumerus -2.4276 -23.684 87.5023
lradius 63.2642
lwrist -16.1602
lhand -15.0295 31.2184
lfingers 7.12502
lthumb 11.1363 60.9029
rfemur -51.2856 -6.33641 13.1087
rtibia 65.8618
rfoot 5.07292 -5.07838
rtoes 0.0230239
lfemur -48.6214 9.05211 -11.2835
ltibia 62.2125
lfoot 8.31024 -11.3554
ltoes -6.73638
695
root 21.5931 13.1503 3.17252 -177.833 -85.3567 157.99
lowerback 30.9328 2.15106 0.946446
upperback 15.2849 1.12438 1.19535
thorax 0.406472 -0.242278 0.445097
lowerneck -23.0917 0.942489 -7.2535
upperneck 17.959 2.81841 3.96014
head 9.28776 1.2609 2.96575
rclavicle -1.98785e-016 5.1684e-015
rhumerus -1.43562 24.9113 -79.4514
rradius 66.238
rwrist 4.07492
rhand -18.7496 25.1263
rfingers 7.12502
rthumb 7.54682 -4.7191
lclavicle -1.98785e-016 5.1684e-015
lhumerus -2.31157 -24.0013 87.3273
lradius 62.649
lwrist -16.1786
lhand -15.4129 31.7115
lfingers 7.12502
lthumb 10.7665 61.4156
rfemur -50.9121 -6.57895 12.955
rtibia 65.7856
rfoot 4.99664 -4.18894
rtoes -3.44483
lfemur -48.3276 8.79734 -11.3329
ltibia 62.1875
lfoot 8.47618 -11.38
ltoes -6.50047
